PathFileType	4	(X/Y/Z)	RBDS027\RBDS027runT25.trc
DataRate	CameraRate	NumFrames	NumMarkers	Units	OrigDataRate	OrigDataStartFrame	OrigNumFrames
150.000000	150.000000	4	33	mm	150.000000	2250	4500
Frame#	Time	L.ASIS			L.Heel.Bottom			L.Heel.Lateral			L.Heel.Top			L.Iliac.Crest			L.MT1			L.MT5			L.PSIS			L.Shank.Bottom.Lateral			L.Shank.Bottom.Medial			L.Shank.Top.Lateral			L.Shank.Top.Medial			L.Thigh.Bottom.Lateral			L.Thigh.Bottom.Medial			L.Thigh.Top.Lateral			L.Thigh.Top.Medial			R.ASIS			R.ASY			R.Heel.Bottom			R.Heel.Lateral			R.Heel.Top			R.Iliac.Crest			R.MT1			R.MT5			R.PSIS			R.Shank.Bottom.Lateral			R.Shank.Bottom.Medial			R.Shank.Top.Lateral			R.Shank.Top.Medial			R.Thigh.Bottom.Lateral			R.Thigh.Bottom.Medial			R.Thigh.Top.Lateral			R.Thigh.Top.Medial			
		X1	Y1	Z1	X2	Y2	Z2	X3	Y3	Z3	X4	Y4	Z4	X5	Y5	Z5	X6	Y6	Z6	X7	Y7	Z7	X8	Y8	Z8	X9	Y9	Z9	X10	Y10	Z10	X11	Y11	Z11	X12	Y12	Z12	X13	Y13	Z13	X14	Y14	Z14	X15	Y15	Z15	X16	Y16	Z16	X17	Y17	Z17	X18	Y18	Z18	X19	Y19	Z19	X20	Y20	Z20	X21	Y21	Z21	X22	Y22	Z22	X23	Y23	Z23	X24	Y24	Z24	X25	Y25	Z25	X26	Y26	Z26	X27	Y27	Z27	X28	Y28	Z28	X29	Y29	Z29	X30	Y30	Z30	X31	Y31	Z31	X32	Y32	Z32	X33	Y33	Z33	

2251	15	2122.285295644593	879.1479993370474	879.643080087675	1471.212925263659	384.2725712502946	990.8683365993786	1487.934455771721	361.3375063952014	940.4618836673604	1520.584639994273	379.9863896869336	983.4211270800051	2089.0886349053	966.4814944926514	852.7168983614943	1527.029530114568	173.9098605046719	1003.76159070471	1498.396134998671	214.3993153825697	902.5011289116636	1959.508524858914	928.9217242418343	953.6478490248936	1593.424878032487	362.2748659642962	910.024615618004	1585.004588148152	387.940399875605	958.7111072968172	1655.217738990708	412.0925392688003	896.9468687523754	1649.934660768823	435.3124975538545	944.7845984387279	1924.252494948377	553.6122928672455	844.5721501332358	1877.626643688458	571.3923205844769	896.4678291623889	1945.545754741233	661.1728597827072	831.4895365541677	1903.086554429311	677.669888400532	882.5118523800683	2106.344939426632	899.7559706678958	1138.092828644585	2342.308267571537	87.38734474439087	1045.929719659714	2163.23911765102	53.97324979048085	992.8234402100653	2185.518796066431	55.53364154379348	1043.363028242863	2175.842051578109	95.69709380229311	1007.143815535418	2048.468147848636	982.6204305292132	1160.382226775042	2381.630736077118	46.57791456085437	987.4468849785884	2327.154084982717	28.72872156784756	1092.448426727464	1953.952736939871	926.0094257945167	1051.311740611913	2213.946247486746	154.7208159401141	1082.531967644995	2186.938950493428	165.2126287275674	1039.845132345203	2193.32444065578	231.2382194915791	1112.033479070798	2166.506056012242	238.3824381721149	1067.36339746168	2166.256191784621	546.9386045012484	1166.949930795778	2114.755041272767	520.7708989785741	1122.576342980849	2102.322005582642	634.4027843927066	1183.999682621767	2053.025775847585	609.8583831204307	1142.257338767596	
2252	15.00666666666667	2123.217885887387	873.8770780707529	879.7247019110814	1476.839030961427	393.7328304554803	988.0502213539908	1492.459746704435	369.6512233747281	937.8218032622573	1525.948634772276	387.1194070760263	980.5831419990507	2089.548151340225	960.5734534735968	852.305052454587	1522.839012377281	181.0600124032332	1002.46772595528	1496.138251946919	222.1500325253518	900.9107106922618	1959.747328922195	921.8984245681368	952.6975473677478	1597.323528415747	365.522162194638	907.7950264650085	1589.815967583807	391.8562344389742	956.2214154311524	1661.115323059773	412.6893917208184	894.5701370028195	1656.621635942144	436.4884559045731	942.1965518184938	1929.803632069853	545.1518977727692	843.2186928775423	1882.823065578957	561.8834685471321	895.1310578689008	1949.054623513598	653.1463719168758	830.4682339320375	1906.167327428176	668.7133353005817	881.4643427560019	2105.785094293593	894.8886364735789	1138.227950546657	2329.153249699966	84.14211500451496	1042.547135930025	2149.646839384791	50.77271508279333	990.0707503384667	2171.761112785985	53.32599747129733	1040.585792846212	2162.596756406698	92.70443029273247	1003.462327810458	2047.886547270118	977.3804033152156	1159.953864485512	2368.560117932546	41.86636420468596	985.0234692815093	2313.29167151771	27.69956192469828	1090.619172350733	1953.434191193313	919.6287869866488	1050.205603327938	2204.215495971087	151.4192419137725	1079.588438515151	2176.887532161027	163.1817799890063	1037.57399235062	2187.077690831057	228.3554669055824	1109.909094028782	2159.962465311178	236.8253296329634	1065.621905652477	2168.835706001206	543.2961827179837	1166.713614359222	2117.335175598518	515.9104914817128	1122.984124216049	2103.686405353616	629.7892132531151	1183.287828578992	2054.418762730736	604.0903777608775	1142.093650226812	
2253	15.01333333333333	2123.986119715962	868.3277020991501	879.8048777641548	1483.713417477554	402.6093045364106	985.3775753324318	1498.154598596928	377.4914230098253	935.2694851872781	1532.477459617445	393.7258233415781	977.7803953923279	2089.9475863318	954.2146574172328	851.9085850947473	1520.010021331051	187.9522098177922	1000.920507185662	1495.105979097593	229.7146181349634	899.1640793311535	1959.77498506561	914.4477051487182	951.8433635443923	1602.171887147729	368.3617336286263	905.5060203598196	1595.593558918249	395.3337603828098	953.6866698605113	1667.821126695578	412.831871462786	892.1253716764838	1664.093522049334	437.1897942779436	939.5461780751837	1935.379553543512	536.6412994608679	841.8983905571613	1888.18906491552	552.2397411010519	893.9434405644074	1952.529059982528	645.0397061067119	829.5632139927654	1909.390807358978	659.5978769288271	880.6595813710967	2105.052818178583	889.7326785660559	1138.288294476561	2314.287106572727	81.55876476908105	1039.060912638056	2134.489601382223	47.11558049429268	987.5987275061116	2156.471909320925	51.06332227132198	1038.023414284388	2147.571048306726	89.36454152634832	999.8159517827323	2047.319745273731	971.7517541330309	1159.508689513098	2353.965449288685	37.95282433009973	982.7679871238003	2298.097857652916	27.34848785187711	1088.964506715376	1952.721220357004	912.9944320228592	1049.182673491592	2192.974582623609	148.385828444991	1076.493135726152	2165.329733480151	161.5197397812125	1035.221594096073	2179.685614890846	225.6852737862914	1107.656115543036	2152.228872385145	235.5690701047893	1063.808036386542	2170.968157577455	539.2936201931518	1166.445250067172	2119.48152776494	510.8073241746621	1123.29236725199	2104.716524746698	624.8762251985818	1182.582787776439	2055.441040710481	598.0705905051341	1141.916477945444	
2254	15.02	2124.545118012324	862.5496174446308	879.8991030469322	1491.656917009621	410.7476599835447	982.8997016319324	1504.909759390227	384.7622401025425	932.846758870522	1540.015499196122	399.7283130386987	975.0963999867682	2090.250765509964	947.4701564197463	851.5323410915321	1518.695640275012	194.4776850416381	999.0676009926021	1495.440186025166	237.0092407449548	897.2183916079475	1959.557596239282	906.7041696982252	951.0911588624906	1607.940190761592	370.8195270422507	903.1862908225263	1602.308546494581	398.3769127406493	951.1537946070508	1675.299255443876	412.5730387475074	889.6553008897673	1672.322767582492	437.4485653397386	936.8865591086786	1941.01920701249	528.1373787556064	840.5843129042443	1893.733495546553	542.5227287923333	892.8540264241484	1956.007328338895	636.9027239745629	828.7482535845774	1912.752296818792	650.381621249827	880.0368319919555	2104.110204930302	884.3638044603548	1138.317221642825	2298.088100225084	79.62040208226982	1035.595329711007	2118.145658791112	43.20182851748351	985.3975152938198	2140.020955825133	48.83580691763212	1035.674578202025	2131.164805491042	85.84403949162851	996.2724604890936	2046.724830872826	965.7261192140845	1159.090798709307	2338.214816714928	34.90482032894776	980.7673451795779	2281.897098152444	27.55038382146316	1087.495359401329	1951.794513475725	906.2130195590187	1048.241369212097	2180.491936422313	145.6872714469606	1073.323259043048	2152.587633568469	160.2601364854967	1032.818846336102	2171.280720117367	223.2629083031315	1105.303458661221	2143.486286433412	234.6129159765032	1061.927882097009	2172.47718507793	534.956152169426	1166.067405113925	2121.018661437924	505.5539451220853	1123.382646054482	2105.279927161113	619.7375883810101	1181.842432305169	2055.97286457859	591.9440809630458	1141.632267753134	
